<?xml version="1.0" standalone="no"?>
<!DOCTYPE svg PUBLIC "-//W3C//DTD SVG 20010904//EN"
 "http://www.w3.org/TR/2001/REC-SVG-20010904/DTD/svg10.dtd">
<svg version="1.0" xmlns="http://www.w3.org/2000/svg"
 width="260.000000pt" height="260.000000pt" viewBox="0 0 260.000000 260.000000"
 preserveAspectRatio="xMidYMid meet">
<metadata>
Created by potrace 1.14, written by Peter Selinger 2001-2017
</metadata>
<g transform="translate(0.000000,260.000000) scale(0.100000,-0.100000)"
fill="#000000" stroke="none">
<path d="M546 1791 c-3 -5 40 -96 97 -203 57 -106 175 -327 262 -490 l158
-298 138 0 c76 0 140 3 142 8 3 4 17 138 32 297 26 277 36 328 58 306 5 -5 66
-143 136 -308 l126 -298 134 -3 c74 -1 138 1 142 5 7 7 27 186 84 748 13 127
20 234 16 238 -4 4 -66 6 -137 5 l-129 -3 0 -60 c0 -33 4 -171 9 -307 7 -211
7 -248 -6 -248 -8 0 -89 131 -189 308 l-176 307 -132 3 -131 3 0 -39 c0 -21 7
-137 15 -258 22 -331 22 -318 5 -322 -11 -2 -71 93 -195 305 l-181 308 -136 3
c-77 1 -139 -2 -142 -7z"/>
</g>
</svg>
