<?xml version="1.0" encoding="utf-8"?>
<!-- Generator: Adobe Illustrator 23.0.3, SVG Export Plug-In . SVG Version: 6.00 Build 0)  -->
<svg version="1.1" id="Слой_1" xmlns="http://www.w3.org/2000/svg" xmlns:xlink="http://www.w3.org/1999/xlink" x="0px" y="0px"
	 viewBox="0 0 15.5 57" style="enable-background:new 0 0 15.5 57;" xml:space="preserve">
<style type="text/css">
	.st0{fill:#CC3B3B;}
	.st1{fill-rule:evenodd;clip-rule:evenodd;fill:#FFFFFF;}
</style>
<title>logo_developer</title>
<g>
	<g id="Прямоугольник_2">
		<g id="Прямоугольник_2-2">
			<rect class="st0" width="15.5" height="57"/>
		</g>
	</g>
	<g id="r">
		<g id="r-2">
			<path class="st1" d="M9.2,9.5c0.2-0.3,0.3-0.6,0.3-0.9c0-0.3-0.1-0.7-0.4-0.9C8.9,7.3,8.5,7.1,8.1,7.1h-2v4.6h0.6V10h1.3l0.8,1.7
				h0.7L8.7,9.9C8.9,9.8,9.1,9.6,9.2,9.5z M6.7,9.5V7.7h1.4c0.5,0,0.9,0.4,0.9,0.9c0,0.2-0.1,0.4-0.2,0.5C8.6,9.3,8.3,9.4,8.1,9.4
				L6.7,9.5z"/>
		</g>
	</g>
</g>
</svg>
