<?xml version="1.0" encoding="utf-8"?>
<!-- Generator: Adobe Illustrator 23.0.0, SVG Export Plug-In . SVG Version: 6.00 Build 0)  -->
<svg version="1.1" id="Layer_1" xmlns="http://www.w3.org/2000/svg" xmlns:xlink="http://www.w3.org/1999/xlink" x="0px" y="0px"
	 viewBox="0 0 37 100.2" style="enable-background:new 0 0 37 100.2;" xml:space="preserve">
<style type="text/css">
	.st0{fill:#CC3B3B;}
	.st1{fill:#FFFFFF;}
</style>
<title>logo_rempire</title>
<g id="Слой_2">
	<g id="Слой_1-2">
		<path id="ikh6a" class="st0" d="M0,100.2V0h37v100.2H0z"/>
		<path class="st1" d="M20.5,83.2l2.1,4.8h-1.7L19,83.5h-3.1V88h-1.5V75.8h4.7c0.4,0,0.8,0.1,1.1,0.2c0.6,0.2,1.1,0.6,1.5,1.1
			c1.1,1.4,1.1,3.4,0.1,4.9C21.5,82.5,21,82.9,20.5,83.2z M15.9,81.9h3.2c0.6,0,1.2-0.3,1.5-0.9c0.3-0.4,0.5-0.9,0.5-1.4
			c0-0.6-0.2-1.1-0.6-1.6c-0.4-0.4-0.9-0.7-1.4-0.7h-3.2V81.9z"/>
	</g>
</g>
</svg>
