<svg xmlns="http://www.w3.org/2000/svg" xmlns:xlink="http://www.w3.org/1999/xlink"><defs><style>.cls-1{fill:#2fa944}</style><path id="a" d="M1046.703 5045.127c.282.444.424.984.424 1.619a3.26 3.26 0 01-.486 1.762 3.032 3.032 0 01-.771.868c-.348.27-.758.455-1.231.555-.474.1-.987.15-1.54.15h-4.91v-11.05h5.266c1.329.02 2.27.411 2.825 1.178.332.47.499 1.03.499 1.687 0 .674-.167 1.218-.504 1.627-.19.228-.466.439-.832.629.555.206.974.53 1.26.975zm-6.342-1.74h2.65c.471 0 .856-.091 1.153-.273.294-.183.443-.507.443-.97 0-.517-.195-.856-.586-1.022-.337-.115-.767-.173-1.288-.173h-2.372zm4.467 3.202c0-.577-.23-.971-.693-1.187-.26-.119-.624-.182-1.091-.186h-2.683v2.947h2.646c.473 0 .842-.065 1.105-.195.478-.242.716-.7.716-1.38zm4.629-7.043h4.67v1.375h-4.67zm6.362 7.05h-5.87c.035.82.312 1.395.844 1.724.321.205.707.308 1.162.308.479 0 .869-.125 1.168-.374.166-.136.31-.323.435-.562h2.151c-.057.484-.319.976-.78 1.477-.722.793-1.733 1.191-3.032 1.191a4.346 4.346 0 01-2.838-1.005c-.822-.67-1.231-1.76-1.231-3.27 0-1.417.37-2.503 1.11-3.259.741-.753 1.7-1.133 2.88-1.133.704 0 1.335.127 1.896.383a3.27 3.27 0 011.391 1.209c.333.486.547 1.049.644 1.689.057.374.079.916.07 1.622zm-2.186-1.41c-.039-.568-.227-.997-.561-1.293-.339-.293-.754-.44-1.251-.44-.54 0-.96.158-1.258.468-.297.312-.485.734-.562 1.265z"/><style>.cls-1{fill-rule:evenodd}</style></defs><symbol id="icon-arrow-bottom" viewBox="0 0 16.4 24.1"><style>.st0{fill:#2fa944}</style><g id="&#x421;&#x43B;&#x43E;&#x439;_2"><g id="&#x421;&#x43B;&#x43E;&#x439;_1-2"><path transform="rotate(-45.001 11.846 19.545)" class="st0" d="M6.1 18.9h11.6v1.3H6.1z"/><path transform="rotate(-45.001 4.536 19.55)" class="st0" d="M3.9 13.8h1.3v11.6H3.9z"/><path class="st0" d="M7.6 0h1.3v23.1H7.6z"/></g></g></symbol><symbol id="icon-arrow-left" viewBox="0 0 24.1 16.4"><style>.st0{fill:#2fa944}</style><g id="&#x421;&#x43B;&#x43E;&#x439;_2"><g id="&#x421;&#x43B;&#x43E;&#x439;_1-2"><path transform="rotate(-45.001 4.542 11.85)" class="st0" d="M3.9 6.1h1.3v11.6H3.9z"/><path transform="rotate(-45.001 4.536 4.54)" class="st0" d="M-1.3 3.9h11.6v1.3H-1.3z"/><path class="st0" d="M1 7.6h23.1v1.3H1z"/></g></g></symbol><symbol id="icon-arrow-right" viewBox="0 0 24.09 16.38"><g id="&#x421;&#x43B;&#x43E;&#x439;_2" data-name="&#x421;&#x43B;&#x43E;&#x439; 2"><g id="&#x421;&#x43B;&#x43E;&#x439;_1-2" data-name="&#x421;&#x43B;&#x43E;&#x439; 1"><path class="cls-1" transform="rotate(-135 19.552 11.847)" d="M18.93 6.05h1.25v11.58h-1.25z"/><path class="cls-1" transform="rotate(-45 19.548 4.533)" d="M18.92-1.25h1.25v11.58h-1.25z"/><path class="cls-1" transform="rotate(-90 11.53 8.2)" d="M10.9-3.33h1.25v23.06H10.9z"/></g></g></symbol><symbol id="icon-arrow-top" viewBox="0 0 16.4 24.1"><style>.st0{fill:#2fa944}</style><g id="&#x421;&#x43B;&#x43E;&#x439;_2"><g id="&#x421;&#x43B;&#x43E;&#x439;_1-2"><path transform="rotate(-45.001 4.536 4.542)" class="st0" d="M-1.3 3.9h11.6v1.3H-1.3z"/><path transform="rotate(-45.001 11.847 4.536)" class="st0" d="M11.2-1.3h1.3v11.6h-1.3z"/><path class="st0" d="M7.6 1h1.3v23.1H7.6z"/></g></g></symbol><symbol id="icon-behance"><use xlink:href="#a" width="100%" height="100%" fill="#39393b" transform="translate(-1038.189 -5039.031)"/></symbol><symbol id="icon-checked" viewBox="0 0 189.8 191.2"><path d="M146.1 165.4h-11.2c-2.9 5.8-8.9 9.8-15.8 9.8H33.7c-9.7 0-17.6-7.9-17.6-17.6V72c0-7.4 4.5-13.7 10.9-16.3v-9.5c0-2.5.3-5 .8-7.4C12 41.7 0 55.5 0 72v85.5c0 18.6 15.1 33.7 33.7 33.7h85.5c16 0 29.5-11.3 32.8-26.3-1.9.3-3.8.5-5.9.5z"/><path d="M156.1 0H70.6C52.1 0 37 15.1 37 33.7v85.5c0 18.6 15.1 33.7 33.7 33.7h85.5c18.6 0 33.7-15.1 33.7-33.7V33.7C189.8 15.1 174.7 0 156.1 0zm17.7 119.2c0 9.7-7.9 17.6-17.6 17.6H70.6c-9.7 0-17.6-7.9-17.6-17.6V33.7C53 23.9 60.9 16 70.6 16h85.5c9.7 0 17.6 7.9 17.6 17.6v85.6z"/><path d="M161.8 45.1c-3.1-3.1-8.2-3.1-11.3 0l-45.6 45.6-20-20c-3.1-3.1-8.2-3.1-11.3 0-3.1 3.1-3.1 8.2 0 11.3l25.7 25.7c1.6 1.6 3.6 2.3 5.7 2.3s4.1-.8 5.7-2.3L162 56.4c2.9-3.1 2.9-8.2-.2-11.3z"/></symbol><symbol id="icon-facebook"><path d="M50.012.02L37.547 0C23.543 0 14.493 9.285 14.493 23.656v10.907H1.96A1.96 1.96 0 000 36.524v15.803a1.96 1.96 0 001.96 1.96h12.533v39.876a1.96 1.96 0 001.96 1.96h16.352a1.96 1.96 0 001.96-1.96V54.287h14.654a1.96 1.96 0 001.96-1.96l.006-15.803a1.963 1.963 0 00-1.961-1.961H34.765v-9.246c0-4.444 1.059-6.7 6.848-6.7l8.397-.003a1.96 1.96 0 001.959-1.96V1.98A1.96 1.96 0 0050.012.02z"/></symbol><symbol id="icon-instagram"><path d="M352 0H160C71.648 0 0 71.648 0 160v192c0 88.352 71.648 160 160 160h192c88.352 0 160-71.648 160-160V160C512 71.648 440.352 0 352 0zm112 352c0 61.76-50.24 112-112 112H160c-61.76 0-112-50.24-112-112V160C48 98.24 98.24 48 160 48h192c61.76 0 112 50.24 112 112z"/><path d="M256 128c-70.688 0-128 57.312-128 128s57.312 128 128 128 128-57.312 128-128-57.312-128-128-128zm0 208c-44.096 0-80-35.904-80-80 0-44.128 35.904-80 80-80s80 35.872 80 80c0 44.096-35.904 80-80 80z"/><circle cx="393.6" cy="118.4" r="17.056"/></symbol><symbol id="icon-shield" viewBox="0 0 291.3 374.02"><g data-name="&#x421;&#x43B;&#x43E;&#x439; 2"><path d="M287.5 75.72L147 .83a7.16 7.16 0 00-6.7 0l-136.7 75a7 7 0 00-3.6 6.1v97.8a202.57 202.57 0 00121.4 185.4l19 8.29a6.83 6.83 0 005.6 0l21.4-9.2a202.1 202.1 0 00123.9-186.4V81.93a7.28 7.28 0 00-3.8-6.21zm-58.5 72.2L134.9 242a9.14 9.14 0 01-1.6 1.3 10.31 10.31 0 01-13-1.3l-.2-.2-49.2-49.2A10.32 10.32 0 1185.5 178l42.1 42.1 86.8-86.8a10.38 10.38 0 0114.6 0 10.19 10.19 0 010 14.62z" data-name="&#x421;&#x43B;&#x43E;&#x439; 1"/></g></symbol><symbol id="icon-vk"><path d="M545.451 282.55c-.664-1.431-1.283-2.618-1.858-3.57-9.514-17.134-27.695-38.166-54.532-63.101l-.567-.571-.284-.28-.287-.287h-.288c-12.18-11.611-19.893-19.418-23.123-23.415-5.91-7.614-7.234-15.321-4.004-23.13 2.282-5.9 10.854-18.36 25.696-37.397 7.807-10.09 13.99-18.175 18.556-24.267 32.931-43.78 47.208-71.756 42.828-83.94l-1.701-2.846c-1.143-1.714-4.093-3.282-8.846-4.712-4.764-1.427-10.853-1.663-18.278-.712l-82.224.568c-1.332-.472-3.234-.428-5.712.144l-3.713.859-1.431.715-1.136.859c-.952.568-1.999 1.567-3.142 2.995-1.137 1.423-2.088 3.093-2.848 4.996-8.952 23.03-19.13 44.444-30.553 64.238-7.043 11.803-13.511 22.032-19.418 30.693-5.899 8.658-10.848 15.037-14.842 19.126-4 4.093-7.61 7.372-10.852 9.849-3.237 2.478-5.708 3.525-7.419 3.142-1.715-.383-3.33-.763-4.859-1.143-2.663-1.714-4.805-4.045-6.42-6.995-1.622-2.95-2.714-6.663-3.285-11.136-.568-4.476-.904-8.326-1-11.563-.089-3.233-.048-7.806.145-13.706.198-5.903.287-9.897.287-11.991 0-7.234.141-15.085.424-23.555.288-8.47.521-15.181.716-20.125.194-4.95.284-10.185.284-15.705s-.336-9.85-1-12.991a44.442 44.442 0 00-2.99-9.137c-1.335-2.95-3.289-5.232-5.853-6.852-2.569-1.618-5.763-2.902-9.564-3.856C292.269 1.468 279.422.233 263.811.04c-35.401-.38-58.148 1.906-68.236 6.855-3.997 2.09-7.614 4.948-10.848 8.562-3.427 4.189-3.905 6.475-1.431 6.85 11.422 1.712 19.508 5.805 24.267 12.276l1.715 3.429c1.334 2.474 2.666 6.854 3.999 13.134 1.331 6.28 2.19 13.227 2.568 20.837.95 13.897.95 25.793 0 35.689-.953 9.9-1.853 17.607-2.712 23.127-.859 5.52-2.143 9.993-3.855 13.418-1.715 3.426-2.856 5.52-3.428 6.28-.571.76-1.047 1.239-1.425 1.427a21.387 21.387 0 01-7.71 1.43c-2.667 0-5.901-1.333-9.707-4-3.805-2.665-7.754-6.327-11.847-10.991-4.093-4.665-8.709-11.184-13.85-19.558-5.137-8.374-10.467-18.271-15.987-29.691l-4.567-8.282c-2.855-5.328-6.755-13.086-11.704-23.267-4.952-10.185-9.329-20.037-13.134-29.554-1.521-3.997-3.806-7.04-6.851-9.134l-1.429-.86c-.95-.76-2.475-1.566-4.567-2.426a30.301 30.301 0 00-6.567-1.854l-78.229.568c-7.994 0-13.418 1.81-16.274 5.428l-1.143 1.71C.288 22.399 0 23.92 0 26.015c0 2.095.571 4.665 1.714 7.708 11.42 26.84 23.839 52.725 37.257 77.659 13.418 24.934 25.078 45.019 34.973 60.237 9.897 15.229 19.985 29.602 30.264 43.112 10.279 13.515 17.083 22.176 20.412 25.98 3.333 3.813 5.951 6.663 7.854 8.566l7.139 6.85c4.568 4.57 11.276 10.042 20.127 16.417 8.853 6.379 18.654 12.659 29.408 18.85 10.756 6.18 23.269 11.225 37.546 15.126 14.275 3.905 28.169 5.472 41.684 4.716h32.834c6.659-.575 11.704-2.67 15.133-6.283l1.136-1.431c.764-1.136 1.479-2.901 2.139-5.276.668-2.38 1-5 1-7.851-.195-8.183.428-15.558 1.852-22.124 1.423-6.564 3.045-11.513 4.859-14.846 1.813-3.33 3.859-6.14 6.136-8.418 2.282-2.283 3.908-3.666 4.862-4.142.948-.48 1.705-.804 2.276-1 4.568-1.521 9.944-.047 16.136 4.43 6.187 4.473 11.99 9.996 17.418 16.56 5.425 6.57 11.943 13.94 19.555 22.124 7.617 8.186 14.277 14.27 19.985 18.274l5.708 3.426c3.812 2.286 8.761 4.38 14.853 6.283 6.081 1.902 11.409 2.378 15.984 1.427l73.087-1.14c7.229 0 12.854-1.197 16.844-3.572 3.998-2.38 6.373-5 7.139-7.851.764-2.854.805-6.092.145-9.712-.677-3.611-1.344-6.136-2.008-7.563z"/></symbol><symbol id="icon-warning" viewBox="0 0 488.45 431.58"><g data-name="&#x421;&#x43B;&#x43E;&#x439; 2"><path d="M484.13 383.58L271.93 16c-12.3-21.29-43.1-21.29-55.4 0L4.33 383.58c-12.3 21.29 3.1 48 27.7 48h424.4c24.57 0 40-26.71 27.7-48zm-239.6-254.4a24.25 24.25 0 0124.2 24.9l-4 139.6a20.31 20.31 0 01-40.6 0l-3.9-139.6a24.33 24.33 0 0124.3-24.9zm-.3 252.5a25.21 25.21 0 1125.2-25.21 25.22 25.22 0 01-25.2 25.21z" data-name="Capa 1"/></g></symbol><symbol id="icon-whatsapp"><path d="M90 43.841c0 24.213-19.779 43.841-44.182 43.841a44.256 44.256 0 01-21.357-5.455L0 90l7.975-23.522a43.38 43.38 0 01-6.34-22.637C1.635 19.628 21.416 0 45.818 0 70.223 0 90 19.628 90 43.841zM45.818 6.982c-20.484 0-37.146 16.535-37.146 36.859 0 8.065 2.629 15.534 7.076 21.61L11.107 79.14l14.275-4.537A37.122 37.122 0 0045.819 80.7c20.481 0 37.146-16.533 37.146-36.857 0-20.324-16.664-36.861-37.147-36.861zm22.311 46.956c-.273-.447-.994-.717-2.076-1.254-1.084-.537-6.41-3.138-7.4-3.495-.993-.358-1.717-.538-2.438.537-.721 1.076-2.797 3.495-3.43 4.212-.632.719-1.263.809-2.347.271-1.082-.537-4.571-1.673-8.708-5.333-3.219-2.848-5.393-6.364-6.025-7.441-.631-1.075-.066-1.656.475-2.191.488-.482 1.084-1.255 1.625-1.882.543-.628.723-1.075 1.082-1.793.363-.717.182-1.344-.09-1.883-.27-.537-2.438-5.825-3.34-7.977-.902-2.15-1.803-1.792-2.436-1.792-.631 0-1.354-.09-2.076-.09s-1.896.269-2.889 1.344c-.992 1.076-3.789 3.676-3.789 8.963 0 5.288 3.879 10.397 4.422 11.113.541.716 7.49 11.92 18.5 16.223C58.2 65.771 58.2 64.336 60.186 64.156c1.984-.179 6.406-2.599 7.312-5.107.9-2.512.9-4.663.631-5.111z"/></symbol><symbol id="icon-yandex" viewBox="0 0 455 455"><g id="&#x421;&#x43B;&#x43E;&#x439;_2" data-name="&#x421;&#x43B;&#x43E;&#x439; 2"><g id="Layer_1" data-name="Layer 1"><path class="cls-1" d="M239.62 96.7c-5 .81-40.9 8.88-40.9 71.39 0 28.54 7.16 45.73 15.38 56.06a42 42 0 0032.9 15.42h22.25V96.62h-28.6a6.19 6.19 0 00-1.03.08z"/><path class="cls-1" d="M0 0v455h455V0zm303.62 385H270.2V267.42h-23.51L193.47 385h-42.09l66.84-120.68s-56.31-26-56.31-90.35S206.78 70 244.45 70h59.17z"/></g></g></symbol><symbol id="logo-rempre-square" viewBox="0 0 37 37"><path d="M0 37V0h37v37H0z" fill="#cc3b3b"/><path d="M22.7 20.9l4.4 9.1h-3.5l-4.1-8.5H13V30H9.9V6.9h9.9c.8 0 1.6.1 2.4.4 1.2.4 2.4 1.1 3.2 2.1 2.3 2.6 2.4 6.5.2 9.2-.8 1.1-1.8 1.8-2.9 2.3zM13 18.6h6.8c1.3 0 2.5-.6 3.3-1.6.6-.8 1-1.7 1-2.7 0-1.1-.4-2.2-1.2-3-.8-.8-1.9-1.3-3-1.4H13v8.7z" fill="#fff"/></symbol><symbol id="temp-icon-left-arrow" viewBox="0 0 31.494 31.494"><path d="M10.273 5.01a1.117 1.117 0 011.587 1.57l-8.047 8.047h26.554c.62 0 1.127.492 1.127 1.11 0 .62-.508 1.128-1.127 1.128H3.813l8.047 8.032c.43.444.43 1.16 0 1.587a1.112 1.112 0 01-1.587 0L.32 16.532a1.12 1.12 0 010-1.57l9.953-9.953z" fill="#FFF"/></symbol><symbol id="temp-icon-right-arrow" viewBox="0 0 31.49 31.49"><path d="M21.205 5.007a1.117 1.117 0 00-1.587 1.57l8.047 8.048H1.11c-.618 0-1.11.493-1.11 1.112 0 .62.492 1.127 1.11 1.127h26.555l-8.047 8.032c-.43.444-.43 1.16 0 1.587.444.444 1.16.444 1.587 0l9.952-9.952a1.092 1.092 0 000-1.57l-9.952-9.95z" fill="#1E201D"/></symbol></svg>