<svg width="613" height="169" viewBox="0 0 613 169" fill="none" xmlns="http://www.w3.org/2000/svg">
<path d="M0.756088 7.85636C-0.0361103 6.39691 1.02049 4.62116 2.68108 4.62116H45.085C45.8555 4.62116 46.5693 5.02603 46.9648 5.68734L106.314 104.936C107.496 106.911 110.535 105.96 110.379 103.664L103.842 6.95919C103.757 5.69426 104.76 4.62116 106.027 4.62116H145.366C146.145 4.62116 146.865 5.03457 147.257 5.70699L204.962 104.529C206.114 106.501 209.137 105.615 209.042 103.333L205.016 6.90283C204.964 5.65839 205.959 4.62116 207.204 4.62116H247.938C249.237 4.62116 250.25 5.7455 250.116 7.03771L234.061 161.634C233.945 162.75 233.005 163.598 231.883 163.598H189.538C188.663 163.598 187.873 163.078 187.527 162.275L145.327 64.4647C144.432 62.3885 141.36 62.866 141.137 65.1161L131.563 161.623C131.452 162.744 130.509 163.598 129.383 163.598H86.5968C85.7937 163.598 85.055 163.158 84.6718 162.452L0.756088 7.85636Z" fill="white"/>
<path d="M424.529 114.303C427.526 114.303 429.689 117.132 428.667 119.902C423.361 134.278 414.68 145.66 402.623 154.047C389.25 163.495 373.265 168.219 354.669 168.219C329.804 168.219 309.745 160.62 294.491 145.42C279.447 130.221 271.925 110.092 271.925 85.0339C271.925 60.3864 279.551 40.0522 294.805 24.0313C310.058 8.01044 329.49 0 353.102 0C377.549 0 396.981 8.21583 411.399 24.6475C425.816 40.8738 433.025 62.9538 433.025 90.8877C433.025 93.2698 431.061 95.201 428.637 95.201H321.628C319.115 95.201 317.073 97.2269 317.245 99.6911C318.053 111.263 321.334 120.241 327.087 126.627C333.774 133.815 343.072 137.41 354.982 137.41C369.691 137.41 380.258 130.625 386.684 117.054C387.461 115.413 389.099 114.303 390.94 114.303H424.529ZM382.927 67.4725C385.587 67.4725 387.686 65.2119 387.214 62.6384C385.694 54.3442 382.472 47.4316 377.549 41.9008C371.698 35.1227 363.549 31.7337 353.102 31.7337C343.281 31.7337 335.132 34.9173 328.655 41.2846C323.161 46.6851 319.546 53.785 317.81 62.584C317.299 65.1735 319.405 67.4725 322.088 67.4725H382.927Z" fill="white"/>
<path d="M604.504 114.303C607.501 114.303 609.663 117.132 608.641 119.902C603.336 134.278 594.654 145.66 582.598 154.047C569.225 163.495 553.24 168.219 534.644 168.219C509.779 168.219 489.719 160.62 474.466 145.42C459.422 130.221 451.899 110.092 451.899 85.0339C451.899 60.3864 459.526 40.0522 474.779 24.0313C490.033 8.01044 509.465 0 533.076 0C557.524 0 576.956 8.21583 591.374 24.6475C605.791 40.8738 613 62.9538 613 90.8877C613 93.2698 611.035 95.201 608.612 95.201H501.603C499.09 95.201 497.048 97.2269 497.22 99.6911C498.028 111.263 501.309 120.241 507.062 126.627C513.749 133.815 523.047 137.41 534.957 137.41C549.666 137.41 560.233 130.625 566.659 117.054C567.435 115.413 569.074 114.303 570.915 114.303H604.504ZM562.901 67.4725C565.562 67.4725 567.661 65.2119 567.189 62.6384C565.669 54.3442 562.447 47.4316 557.524 41.9008C551.673 35.1227 543.524 31.7337 533.076 31.7337C523.256 31.7337 515.107 34.9173 508.629 41.2846C503.135 46.6851 499.52 53.7849 497.784 62.584C497.273 65.1735 499.379 67.4725 502.063 67.4725H562.901Z" fill="white"/>
</svg>
